<?xml version="1.0" ?><!DOCTYPE svg  PUBLIC '-//W3C//DTD SVG 1.1//EN'  'http://www.w3.org/Graphics/SVG/1.1/DTD/svg11.dtd'><svg height="512px" id="形状_1_1_" style="enable-background:new 0 0 512 512;" version="1.1" viewBox="0 0 512 512" width="512px" xml:space="preserve" xmlns="http://www.w3.org/2000/svg" xmlns:xlink="http://www.w3.org/1999/xlink"><g id="形状_1"><g><path d="M198.484,307.538c-19.472-7.719-44.445-6.412-64.39-0.588    l-21.041,6.242l-10.946,3.364c-11.913,3.241-27.293,7.497-39.178,1.205c-10.974-5.936-14.882-18.037-13.928-30.366    c1.945-16.999,8.614-32.037,16.437-46.59c9.597-16.185,21.012-32.426,36.728-45.067c4.139-2.838,8.22-6.225,13.623-5.599    c1.216,0.246,2.006,1.04,2.668,2.074c0.241,0.729,0.601,1.762-0.252,2.307c-4.984,0.653-9.31,5.616-10.422,10.288    c-0.37,2.248-0.503,4.736,1.255,6.444c0.784,0.854,1.818,1.284,3.027,1.287c6.747-0.948,10.788-8.405,12.081-14.293    c0.99-4.979,0.401-10.508-3.96-13.742c-4.909-3.782-12.265-2.231-17.796-0.851c-26.943,8.895-49.754,35.545-62.956,59.979    c-3.116,5.941-5.932,12.007-8.204,18.258c-6.983,17.711-8.713,43.643,5.997,58.331c9.315,10.235,23.649,10.65,37.019,9.426    c26.375-3.316,49.443-16.598,77.494-13.891c8.683,1.729,17.167,6.194,22.185,14.235l0.791,0.178    c16.547-7.893,38.281-3.387,54.964,1.167c0.367,0.063,0.367-0.304,0.372-0.604C222.374,319.165,210.249,312.437,198.484,307.538z     M226.364,219.071c-1.94-0.493-2.617,1.57-3.589,2.539c-1.216,0.482-2.006-0.798-2.976-1.165    c-6.005-3.178-13.06-0.531-18.046,2.914c-16.083,11.729-22.46,29.567-34.476,43.982c-5.241,5.691-11.276,11.193-18.147,13.903    c-2.372,0.598-4.683-0.202-6.071-2.087c-1.872-2.979-0.942-7.168-0.203-10.384c2.697-8.921,6.797-17.349,11.865-25.29    c4.035-5.938,8.555-13.031,15.491-15.921c1.149,0.003,2.242,0.129,2.973,1.163c0.958,2.617-2.558,1.813-3.719,2.965    c-4.076,2.657-7.01,7.328-5.992,12.371c0.414,1.095,1.325,2.19,2.42,2.559c2.728,0.86,5.102-0.528,6.993-2.345    c4.939-5.51,8.487-13.453,4.866-20.635c-1.388-2.494-3.997-4.024-6.662-4.458c-14.271-1.509-23.67,11.336-32.453,21.146    c-4.083,3.875-8.648,6.531-14.292,6.692c-0.425-0.062-0.791-0.547-0.791-0.976c2.153-7.461,4.623-18.325-1.739-24.662    c-3.023-2.627-7.276-3.005-11.232-2.107c-14.773,4.688-25.458,20.324-32.427,33.115c-3.305,6.851-6.059,13.953-7.481,21.599    c-0.756,6.735-0.232,14.03,5.709,18.122c5.695,3.235,12.932,0.835,17.801-2.672c11.756-9.009,18.849-21.865,25.389-33.988    l0.977-1.093c2.795-0.416,5.59-0.892,8.506-1.124c0.607,0.123,0.667,0.794,0.484,1.277c-4.228,10.251-10.59,24.082-2.549,34.615    c3.33,3.532,7.637,5.006,12.614,4.417c10.759-2.03,19.531-9.224,27.642-17.214c0.242-0.184,0.849-0.364,1.026,0.12    c0.111,4.133-0.819,8.93,1.117,12.642c1.027,2.188,3.206,3.959,5.513,4.452c7.468,0.939,12.951-3.842,18.25-8.626    c0.367-0.117,0.791-0.054,1.034,0.253c0.661,2.608,0.769,5.527,3.19,7.361c1.58,1.521,4.128,1.347,6.193,1.11    c12.466-3.118,21.314-15.232,28.094-25.661c2.199-4,4.702-7.877,6.299-12.123c-1.032-0.974-2.792-0.374-4.193-0.56    c-1.334-0.187-2.125,1.021-2.795,1.992c-1.591,3.336-3.548,6.488-5.746,9.518c-2.504,3.209-5.309,7.026-8.904,9.081    c-0.664,0.237-1.577,0.301-1.996-0.43c-0.12-0.61-0.06-1.344,0.187-1.885l24.953-50.694l1.29-3.092l-0.3-0.426    C235.903,218.924,230.796,219.148,226.364,219.071z M112.528,255.486c-3.792,7.4-8.435,15.097-15.134,20.722    c-1.401,0.904-2.923,1.872-4.747,1.379c-1.698-0.424-2.602-2.194-2.963-3.716c0.154-8.199,3.637-15.172,7.058-22.081l3.304-5.517    c0.425-0.427,0.667-1.031,1.281-1.149l0.666,0.123c3.088,3.474,6.965,6.222,10.971,7.813    C113.384,253.852,112.835,254.761,112.528,255.486z M119.33,238.258c-0.617,2.552-1.356,5.1-2.572,7.405    c-0.677,0.971-1.951,0.357-2.737,0.11c-3.219-1.225-6.609-4.396-6.836-8.041c-0.108-4.133,2.514-7.826,6.166-9.637    c1.154-0.544,2.795-0.476,3.886,0.133C120.453,230.43,119.948,234.921,119.33,238.258z M215.73,237.5    c-5.507,12.132-11.621,24.074-19.618,35.163c-1.768,1.938-3.595,4.421-6.333,4.352c-0.67-0.184-1.392-0.674-1.693-1.344    c-0.963-3.339,0.444-6.618,1.368-9.651l2.144-5.4c5.385-11.277,11.197-23.163,21.977-31.449c0.971-0.481,2.128-1.328,3.342-0.778    c0.484,0.307,1.097,0.733,1.151,1.341C218.118,232.591,216.65,234.953,215.73,237.5z M255.946,236.608    c1.398-0.179,2.677-1.33,3.291-2.541c2.509-4.61,4.711-9.338,6.726-14.128l-0.483-0.49l-11.961-0.163    c-1.642,0.176-3.527,0.112-4.744,1.443c-2.993,4.481-5.012,9.396-7.399,14.125c-0.124,0.549-0.554,1.215-0.07,1.702    C245.925,236.996,251.085,236.71,255.946,236.608z M317.864,265.309c-0.776-3.953-3.551-8.395-7.745-9.502    c-9.586-2.281-17.504,3.826-23.659,10.973c-7.755,10.846-12.778,22.918-12.278,37.016c0.119,0.236,0.178,0.727,0.603,0.606    c3.477-4.06,7.804-8.114,12.19-11.137c2.311-1.755,4.93-2.896,7.122-4.712c0.879-7.652,2.963-14.751,7.903-20.687    c2.138-2.185,4.761-4.781,7.912-3.374c3.512,2.622,2.46,7.843,2.025,11.672c-2.658,12.804-9.137,24.143-18.77,33.951    c-6.332,5.445-14.433,11.248-22.858,6.72c-9.573-6.59-6.49-21.037-4.208-30.448c7.373-25.06,20.328-47.854,37.408-68.871    c9.574-10.838,19.945-22.283,32.897-26.612c0.973-0.179,2.312-0.659,3.101,0.133c0.237,0.365-0.128,0.665-0.306,0.969    c-7.982,6.048-15.361,13.92-20.133,22.285c-4.148,7.701-9.167,18.25-3.486,26.897c2.054,2.741,5.328,3.786,8.732,3.066    c7.783-2.22,13.09-9.127,17.673-15.731c5.739-9.456,9.967-19.828,9.704-31.734c0.184-1.216-0.414-2.796,0.865-3.461    c11.608-1.904,21.856,2.324,30.768,8.368l19.09,13.126c0.425,0.245,1.092,0.429,1.516,0.005    c3.721-4.786,7.202-9.513,11.346-14.114c0.49-0.545,0.919-1.517,0.01-2.005c-7.211-4.52-14.362-9.222-21.885-12.892    c-12.976-6.485-30.965-4.662-43.916,0.517c-1.037,0.361-1.886-0.249-2.606-0.859c-3.76-3.355-9.287-3.798-14.206-3.087    c-18.059,3.399-32.975,14.525-46.755,28.267c-14.201,14.649-24.219,31.259-32.54,48.48l-4.535,10.738    c-4.904,14.071-9.948,32.766-2.653,47.309c3.137,6.817,10.042,11.943,17.45,12.389c19.313,1.828,34.551-13.486,44.197-28.639    C313.835,290.144,319.401,278.555,317.864,265.309z M345.012,196.643c1.025,1.582,0.414,3.89,0.409,5.712    c-1.379,12.326-6.702,23.059-15.484,32.323c-2.436,1.874-5.059,4.294-8.328,3.374c-1.704-0.616-2.36-2.38-2.539-4.022    c0.268-8.136,4.12-14.805,8.327-21.29c4.032-5.818,9.583-11.57,15.49-15.498C343.495,196.821,344.279,196.52,345.012,196.643z     M454.881,255.152c-1.463-0.063-1.526,1.576-2.559,2.302c-1.463,0.725-2.371-0.859-3.586-1.29    c-6.911-3.181-13.969,0.438-19.333,4.667c-16.324,13.862-22.217,32.788-35.577,48.234c-1.832,1.692-3.897,4.178-6.511,3.017    c-0.968-0.613-1.388-1.707-1.446-2.864c0.266-6.865,2.172-13.233,4.079-19.482c1.037-2.305,1.106-5.097,3.181-6.912l9.869-8.11    c13.642-12.402,24.875-26.03,34.763-40.271c0.795-1.517,2.258-2.848,2.381-4.549l-0.425-0.12    c-2.184,0.174-4.372,0.164-6.263,1.072c-8.846,12.48-18.424,24.776-30.249,35.49c-1.581,1.085-2.805,3.21-4.869,3.261    c-0.303-0.244-0.426-0.487-0.356-0.851c2.386-6.312,5.444-12.312,8.382-18.378c8.925-17.461,18.646-34.742,32.062-50.303    c3.601-4.061,7.379-8.239,12.067-10.528c0.913-0.302,2.246-0.662,2.849,0.432c0.483,1.098,0.297,2.068,0.173,3.221    c-0.429,2.126-1.596,4.064-1.664,6.25c0.124,0.125,0.247,0.063,0.365,0.126c2.495-0.784,6.263-1.132,6.639-4.534    c0.929-3.824,1.917-8.8-1.601-11.668c-3.151-2.441-7.894-1.06-11.177,0.082c-13.871,5.967-25.818,18.743-35.158,31.103    c-14.952,21.389-27.547,43.819-36.014,67.969l-0.913,1.145c-2.128,1.091-4.924,1.442-7.354,1.072    c-0.484-0.184-0.97-0.671-0.786-1.338c1.854-7.528,6.076-17.05,1.063-24.48c-1.818-2.493-4.427-3.715-7.399-3.789    c-11.79,0.751-21.121,10.862-28.135,20.131c-8.061,11.876-14.664,24.31-15.864,39.004c-0.021,5.834,1.472,12.032,7.172,14.482    c6.86,2.03,13.011-1.656,17.998-6.071c9.514-9.018,15.56-19.45,21.066-30.239l1.221-1.397l7.472-0.092    c0.485,0.058,1.093,0.61,1.088,1.154c-2.218,9.534-5.537,20.396-2.416,30.309c1.028,3.036,3.991,6.328,7.39,6.584    c8.931,0.759,15.637-7.178,20.948-13.534l0.606-0.243c0.296,0.184,0.178,0.544,0.419,0.733c0.352,4.677,0.88,10.145,5.606,12.349    c7.588,2.093,13.437-3.355,18.859-8.196c0.305-0.184,0.914-0.24,1.155,0.123c1.205,2.558,0.949,5.897,3.616,7.731    c3.338,1.831,7.532,0.449,10.579-1.057c13.08-6.881,21.446-20.458,27.442-32.892c0.188-0.908,1.285-1.936,0.435-2.732    c-1.397-0.184-3.156-0.434-4.435,0.168c-2.382,3.576-4.396,7.275-6.9,10.789c-2.504,3.576-5.311,7.086-9.143,9.201    c-0.791,0.178-1.764,0.117-2.065-0.8c-0.113-2.125,1.106-4.123,2.025-6.002l20.434-41.236l3.305-6.669    c0.118-0.425,0.425-1.032,0-1.397C464.778,254.945,459.676,255.111,454.881,255.152z M355.681,291.924    c-3.795,7.276-7.953,15.279-14.957,20.481c-1.216,0.601-2.737,1.204-4.13,0.714c-2.123-0.676-3.151-2.805-3.27-4.869    c0.021-5.834,2.293-10.685,4.371-15.599c1.833-3.883,3.552-7.763,6.175-11.276c0.425-0.243,1.091-0.177,1.457,0.187    c2.904,3.226,6.416,6.097,10.056,7.928C356.351,290.042,356.046,291.2,355.681,291.924z M359.898,282.279    c-0.485,0.848-1.699,0.544-2.366,0.298c-3.394-1.228-6.367-4.706-6.595-8.408c0.139-3.946,1.788-7.646,5.201-9.879    c1.151-0.544,2.554-0.968,3.888-0.598c1.333,0.431,2.426,1.708,2.845,2.988C363.947,272.154,361.982,277.546,359.898,282.279z     M447.304,267.579c-5.029,12.38-10.412,24.569-17.742,35.959c-2.198,3.149-4.514,6.973-8.11,8.842    c-0.91,0.3-2.065,0.237-2.791-0.493c-1.333-1.345-0.898-3.529-0.771-5.287l1.719-5.951c4.847-11.706,9.983-23.35,19.673-32.972    c2.193-1.574,4.515-4.848,7.488-3.438C447.797,264.97,447.49,266.481,447.304,267.579z M439.494,206.811l-0.973,0.847l-6.47,8.359    l-5.188,7.818c-0.247,0.483-0.919,1.454,0.049,1.701l5.346,0.079c22.661-0.284,43.623-18.135,52.257-38.451    c0.607-1.578,1.402-3.216,1.472-4.978C472.819,195.324,458.209,206.45,439.494,206.811z" style="fill-rule:evenodd;clip-rule:evenodd;fill:#E0051C;"/></g></g></svg>